<?xml version="1.0" standalone="no"?>
<!-- Generator: Paintmaps.com , Online SVG vector map maker -->
<svg xmlns="http://www.w3.org/2000/svg" version="1.1" baseProfile="full" width="810" height="500" position="relative" top="-30px">

<path cursor="pointer" name="Bucuresti" abbreviation="B" d="M 475.6719 408.0653 L 474.6719 410.9544 L 471.5605 409.9914 L 471.0605 411.3248 L 473.0606 416.4363 L 471.2827 417.992 L 468.1714 413.8435 L 464.56 412.8805 L 460.3375 408.2135 L 460.3375 405.2503 L 464.6712 404.8799 L 464.6712 401.9909 L 461.282 400.4352 L 464.5045 394.9533 L 468.8937 393.3236 L 469.3937 399.5462 L 474.4496 400.8797 L 472.8384 405.5467 L 475.6719 408.0653 Z" fill="#8cd5f7" fill-opacity="1" stroke="#000000" stroke-width="0.3636363557547579" paint-order="fill" stroke-opacity="1" stroke-dasharray="" stroke-linecap="butt" stroke-linejoin="miter" stroke-miterlimit="10" transform="matrix(1.100000023841858,0,0,1.100000023841858,-40.000003814697266,-26.649980545043945)" clip-path="none"/>
<path cursor="pointer" name="Caras-Severin" abbreviation="CS" d="M 203.7086 383.3229 L 202.0418 378.1373 L 192.6523 373.174 L 186.0962 374.6556 L 179.5958 373.3222 L 177.3734 370.7294 L 176.1511 365.8402 L 173.8176 364.2104 L 164.317 363.2474 L 160.15 358.5804 L 162.039 355.6173 L 172.0953 354.8765 L 173.3731 352.3578 L 172.0397 349.9872 L 165.2059 347.1722 L 163.8169 344.4313 L 161.8168 344.0609 L 162.6502 341.6163 L 166.5393 340.5051 L 168.2617 334.9492 L 171.7619 332.7268 L 171.3174 329.6155 L 174.651 325.8374 L 174.8732 320.6519 L 176.5956 318.1332 L 176.0956 314.0588 L 172.3731 309.8363 L 171.873 307.5398 L 173.262 302.1321 L 177.929 299.0948 L 180.707 293.4648 L 185.7073 292.3536 L 194.5968 296.2798 L 200.0417 293.8352 L 201.5973 294.1315 L 203.8197 298.354 L 208.3756 298.8726 L 209.3201 293.4648 L 214.4315 293.1685 L 217.8207 290.7979 L 223.9878 292.7981 L 226.3768 288.8719 L 228.8214 287.3162 L 235.9886 286.3532 L 238.1554 291.2424 L 241.5445 292.7981 L 241.7112 295.3168 L 243.8225 295.6872 L 248.545 300.2801 L 250.0451 302.9469 L 250.9341 310.3549 L 249.2673 313.9107 L 251.0452 318.7999 L 248.2117 326.2078 L 241.6557 332.2823 L 241.0445 335.2455 L 245.4337 336.5048 L 245.6559 339.7643 L 240.4889 345.8388 L 237.9332 353.9875 L 234.9885 358.4323 L 231.1549 368.9515 L 227.5436 370.2109 L 225.4879 367.8403 L 222.7099 367.6181 L 219.7097 364.6549 L 217.0428 364.6549 L 215.765 368.8034 L 212.8203 374.063 L 212.5425 382.6562 L 211.2647 383.6933 L 203.7086 383.3229 Z" fill="#8cd5f7" fill-opacity="1" stroke="#000000" stroke-width="0.3636363557547579" paint-order="fill" stroke-opacity="1" stroke-dasharray="" stroke-linecap="butt" stroke-linejoin="miter" stroke-miterlimit="10" transform="matrix(1.100000023841858,0,0,1.100000023841858,-40.000003814697266,-26.649980545043945)" clip-path="none"/>
<path cursor="pointer" name="Timis" abbreviation="TM" d="M 235.9886 286.3532 L 228.8214 287.3162 L 226.3768 288.8719 L 223.9878 292.7981 L 217.8207 290.7979 L 214.4315 293.1685 L 209.3201 293.4648 L 208.3756 298.8726 L 203.8197 298.354 L 201.5973 294.1315 L 200.0417 293.8352 L 194.5968 296.2798 L 185.7073 292.3536 L 180.707 293.4648 L 177.929 299.0948 L 173.262 302.1321 L 171.873 307.5398 L 172.3731 309.8363 L 176.0956 314.0588 L 176.5956 318.1332 L 174.8732 320.6519 L 174.651 325.8374 L 171.3174 329.6155 L 166.5393 324.8744 L 159.8166 322.2075 L 157.1498 321.9112 L 153.9829 319.6888 L 150.0937 314.0588 L 146.8713 315.2441 L 140.0931 310.5771 L 133.0926 302.058 L 130.3702 297.6873 L 127.0366 294.6501 L 129.8146 291.3906 L 127.4255 284.279 L 129.5368 278.2785 L 130.4813 270.7965 L 129.259 269.389 L 125.7587 272.2041 L 122.3696 267.9075 L 121.0917 262.5738 L 117.8693 257.24 L 112.2578 254.4991 L 103.7572 246.2763 L 102.146 240.4981 L 98.5902 235.0904 L 101.4237 231.979 L 111.6466 232.6457 L 113.4245 230.2011 L 118.3693 232.2754 L 121.8696 235.0904 L 126.8144 234.0533 L 128.3145 231.979 L 137.704 239.5351 L 141.0376 245.1651 L 151.2605 248.4246 L 151.8716 251.3137 L 154.7607 251.8323 L 155.7608 248.8691 L 158.4277 248.2024 L 158.9833 250.5729 L 162.4835 253.1657 L 166.8171 251.6841 L 169.0951 253.2398 L 172.4286 250.647 L 173.4843 247.9061 L 177.3734 247.9801 L 179.8736 251.9804 L 182.9294 252.4249 L 186.2074 256.6474 L 185.7073 258.4994 L 187.8741 261.1662 L 192.3745 257.0178 L 197.4304 261.3885 L 197.7637 258.2772 L 201.9862 259.018 L 203.7086 255.2399 L 206.4866 254.9436 L 209.2645 257.3141 L 212.8759 258.0549 L 217.2651 262.7219 L 223.3766 264.2776 L 229.4882 261.9811 L 231.7105 259.4624 L 233.7662 261.9811 L 234.933 267.7593 L 237.1554 270.278 L 240.2111 276.3525 L 242.6002 277.6118 L 238.5443 281.2417 L 235.9886 286.3532 Z" fill="#8cd5f7" fill-opacity="1" stroke="#000000" stroke-width="0.3636363557547579" paint-order="fill" stroke-opacity="1" stroke-dasharray="" stroke-linecap="butt" stroke-linejoin="miter" stroke-miterlimit="10" transform="matrix(1.100000023841858,0,0,1.100000023841858,-40.000003814697266,-26.649980545043945)" clip-path="none"/>
<path cursor="pointer" name="Botosani" abbreviation="BT" d="M 472.2828 80.4129 L 476.6164 79.0795 L 478.561 75.0052 L 481.7279 71.8198 L 483.6725 67.0046 L 484.7837 58.8559 L 493.3954 57.5225 L 502.1182 55.5964 L 506.8963 53.2999 L 511.6189 55.0779 L 515.3413 54.8556 L 521.0084 59.3744 L 521.6196 61.6709 L 523.453 59.8189 L 525.0087 62.4858 L 527.1199 63.3747 L 525.1754 65.4489 L 530.1757 67.375 L 529.3423 69.3011 L 530.8424 73.3754 L 533.9537 75.5978 L 537.6207 81.1537 L 537.1206 85.8948 L 540.2875 88.9321 L 540.2875 92.7842 L 542.7877 94.5621 L 540.732 95.9696 L 544.9545 101.5996 L 545.399 104.7109 L 544.01 105.0813 L 545.9546 109.5261 L 550.0104 114.8598 L 553.844 118.1933 L 550.4549 119.8231 L 546.1768 119.6009 L 541.5654 125.7494 L 539.0652 125.5272 L 532.9537 123.2307 L 531.6203 125.0827 L 532.9537 129.1571 L 529.7312 131.0091 L 524.5642 127.0829 L 514.2302 127.0829 L 511.3966 125.6013 L 506.1185 131.6758 L 503.5627 131.3054 L 500.507 127.8236 L 500.1736 122.1936 L 498.0624 114.2671 L 491.2841 105.748 L 483.228 94.5621 L 474.5607 87.969 L 473.2273 86.043 L 472.2828 80.4129 Z" fill="#8cd5f7" fill-opacity="1" stroke="#000000" stroke-width="0.3636363557547579" paint-order="fill" stroke-opacity="1" stroke-dasharray="" stroke-linecap="butt" stroke-linejoin="miter" stroke-miterlimit="10" transform="matrix(1.100000023841858,0,0,1.100000023841858,-40.000003814697266,-26.649980545043945)" clip-path="none"/>
<path cursor="pointer" name="Bistrita-Nasaud" abbreviation="BN" d="M 351.6077 187.9019 L 353.4968 183.9757 L 354.608 177.3826 L 353.1634 174.7899 L 349.8854 172.0489 L 350.0521 169.0117 L 348.4964 167.5301 L 349.2743 162.715 L 348.2186 160.1963 L 343.1072 156.4182 L 339.6069 155.307 L 337.5512 151.8994 L 336.9401 144.6396 L 340.9403 140.1949 L 341.6071 137.528 L 344.1072 135.3056 L 348.1075 129.8238 L 349.052 126.0457 L 355.608 124.3419 L 360.2195 118.4897 L 365.6643 116.4154 L 377.1651 119.6009 L 388.777 119.5268 L 395.833 115.4524 L 401.0556 115.6747 L 406.5004 120.638 L 409.1117 126.1198 L 405.7226 129.8238 L 406.3893 132.6388 L 403.5558 134.4908 L 406.6671 141.5283 L 404.8337 145.7508 L 407.7228 148.5658 L 406.7227 153.6773 L 406.9449 160.1222 L 402.0557 161.9742 L 396.2775 163.2335 L 390.9994 167.2338 L 387.6102 173.1601 L 384.8878 179.2346 L 379.4986 176.79 L 374.6649 180.1977 L 371.3313 185.9758 L 370.4424 189.5316 L 363.1641 191.8281 L 356.6637 190.6428 L 351.6077 187.9019 Z" fill="#8cd5f7" fill-opacity="1" stroke="#000000" stroke-width="0.3636363557547579" paint-order="fill" stroke-opacity="1" stroke-dasharray="" stroke-linecap="butt" stroke-linejoin="miter" stroke-miterlimit="10" transform="matrix(1.100000023841858,0,0,1.100000023841858,-40.000003814697266,-26.649980545043945)" clip-path="none"/>
<path cursor="pointer" name="Cluj" abbreviation="CJ" d="M 341.6071 137.528 L 340.9403 140.1949 L 336.9401 144.6396 L 337.5512 151.8994 L 339.6069 155.307 L 343.1072 156.4182 L 348.2186 160.1963 L 349.2743 162.715 L 348.4964 167.5301 L 350.0521 169.0117 L 349.8854 172.0489 L 353.1634 174.7899 L 354.608 177.3826 L 353.4968 183.9757 L 351.6077 187.9019 L 349.6632 188.0501 L 345.8851 193.9764 L 346.7741 198.1989 L 345.7184 201.3102 L 341.5515 202.94 L 339.9958 207.2366 L 340.4403 210.6442 L 336.44 214.7186 L 337.829 218.4225 L 335.3844 219.5337 L 330.2729 217.904 L 324.1614 218.2003 L 317.4387 219.5337 L 317.0498 222.1265 L 313.8829 220.719 L 314.8274 216.5706 L 313.7718 215.0149 L 309.2159 214.6445 L 300.8264 209.6812 L 294.4371 210.5701 L 290.8257 213.1629 L 284.3253 212.1258 L 279.4916 215.1631 L 278.7138 212.274 L 276.0469 208.6441 L 273.8246 207.5329 L 264.9351 206.8662 L 263.1572 205.0142 L 263.7683 199.236 L 261.2126 195.6802 L 258.8791 187.9019 L 255.8233 184.3461 L 255.8233 182.7164 L 259.8792 180.1236 L 262.4349 174.5676 L 257.7679 171.0118 L 259.9903 165.6781 L 268.1575 166.5671 L 270.491 167.7523 L 273.0467 173.6046 L 277.7137 175.9751 L 283.2141 176.8641 L 289.8812 176.6419 L 290.3257 173.6787 L 292.437 171.3082 L 294.5482 174.4936 L 299.3819 175.3825 L 298.7707 169.5302 L 301.771 169.5302 L 303.1044 167.456 L 306.9935 167.1597 L 307.938 165.7522 L 306.3268 161.2334 L 308.327 159.011 L 309.9382 154.5662 L 315.1052 152.4179 L 316.9942 152.7883 L 319.6611 149.1585 L 329.1062 146.0471 L 330.4396 139.3059 L 329.4951 137.8243 L 331.3286 136.3428 L 341.6071 137.528 Z" fill="#8cd5f7" fill-opacity="1" stroke="#000000" stroke-width="0.3636363557547579" paint-order="fill" stroke-opacity="1" stroke-dasharray="" stroke-linecap="butt" stroke-linejoin="miter" stroke-miterlimit="10" transform="matrix(1.100000023841858,0,0,1.100000023841858,-40.000003814697266,-26.649980545043945)" clip-path="none"/>
<path cursor="pointer" name="Alba" abbreviation="AB" d="M 263.1572 205.0142 L 264.9351 206.8662 L 273.8246 207.5329 L 276.0469 208.6441 L 278.7138 212.274 L 279.4916 215.1631 L 284.3253 212.1258 L 290.8257 213.1629 L 294.4371 210.5701 L 300.8264 209.6812 L 309.2159 214.6445 L 313.7718 215.0149 L 314.8274 216.5706 L 313.8829 220.719 L 317.0498 222.1265 L 317.4387 219.5337 L 324.1614 218.2003 L 330.2729 217.904 L 335.3844 219.5337 L 337.829 218.4225 L 339.7736 218.6448 L 341.7182 221.2375 L 339.4958 225.9045 L 341.9404 228.6455 L 346.663 231.3864 L 347.663 235.7571 L 349.552 237.9054 L 349.2743 245.6096 L 339.3291 254.9436 L 336.9401 259.7587 L 332.8842 257.0919 L 328.495 257.9808 L 327.2172 259.3143 L 327.9394 263.4627 L 324.8837 267.0185 L 317.2165 266.574 L 317.3831 269.6113 L 320.9945 272.7967 L 316.8276 278.5749 L 313.8273 278.8712 L 312.4384 281.0195 L 310.5493 287.3162 L 311.6605 294.3537 L 310.2715 300.0578 L 312.5495 307.0954 L 310.6605 309.6881 L 307.938 309.9104 L 307.4936 304.7248 L 302.1043 298.8726 L 298.2151 296.2798 L 296.8817 293.4648 L 297.2706 289.6867 L 295.8261 287.1681 L 295.1038 280.575 L 292.5481 269.5372 L 289.4923 264.4998 L 287.3255 257.8327 L 283.9364 256.2029 L 278.2138 247.7579 L 279.6583 244.5725 L 277.2692 239.0906 L 271.88 236.7201 L 270.1576 229.9048 L 268.3797 227.5343 L 262.6016 227.7565 L 259.0458 225.4601 L 256.1567 222.0524 L 255.2677 217.0891 L 255.49 211.385 L 256.7123 206.9403 L 259.2124 203.9771 L 263.1572 205.0142 Z" fill="#8cd5f7" fill-opacity="1" stroke="#000000" stroke-width="0.3636363557547579" paint-order="fill" stroke-opacity="1" stroke-dasharray="" stroke-linecap="butt" stroke-linejoin="miter" stroke-miterlimit="10" transform="matrix(1.100000023841858,0,0,1.100000023841858,-40.000003814697266,-26.649980545043945)" clip-path="none"/>
<path cursor="pointer" name="Hunedoara" abbreviation="HD" d="M 248.2117 326.2078 L 251.0452 318.7999 L 249.2673 313.9107 L 250.9341 310.3549 L 250.0451 302.9469 L 248.545 300.2801 L 243.8225 295.6872 L 241.7112 295.3168 L 241.5445 292.7981 L 238.1554 291.2424 L 235.9886 286.3532 L 238.5443 281.2417 L 242.6002 277.6118 L 240.2111 276.3525 L 237.1554 270.278 L 234.933 267.7593 L 233.7662 261.9811 L 231.7105 259.4624 L 234.8774 255.8325 L 236.2108 252.7953 L 235.7108 248.4246 L 237.322 244.5725 L 237.9332 238.8684 L 240.4334 235.7571 L 242.4891 235.1644 L 248.6561 236.2756 L 251.2674 234.4977 L 254.7677 228.3492 L 259.0458 225.4601 L 262.6016 227.7565 L 268.3797 227.5343 L 270.1576 229.9048 L 271.88 236.7201 L 277.2692 239.0906 L 279.6583 244.5725 L 278.2138 247.7579 L 283.9364 256.2029 L 287.3255 257.8327 L 289.4923 264.4998 L 292.5481 269.5372 L 295.1038 280.575 L 295.8261 287.1681 L 297.2706 289.6867 L 296.8817 293.4648 L 298.2151 296.2798 L 302.1043 298.8726 L 307.4936 304.7248 L 307.938 309.9104 L 308.7159 316.059 L 307.7158 318.7258 L 297.4929 322.8002 L 292.8814 320.9482 L 285.492 323.0224 L 281.8807 325.0225 L 275.5469 323.9854 L 271.3244 325.6152 L 265.3795 323.7632 L 262.1571 321.8371 L 248.2117 326.2078 Z" fill="#8cd5f7" fill-opacity="1" stroke="#000000" stroke-width="0.3636363557547579" paint-order="fill" stroke-opacity="1" stroke-dasharray="" stroke-linecap="butt" stroke-linejoin="miter" stroke-miterlimit="10" transform="matrix(1.100000023841858,0,0,1.100000023841858,-40.000003814697266,-26.649980545043945)" clip-path="none"/>
<path cursor="pointer" name="Maramures" abbreviation="MM" d="M 401.0556 115.6747 L 395.833 115.4524 L 388.777 119.5268 L 377.1651 119.6009 L 365.6643 116.4154 L 360.2195 118.4897 L 355.608 124.3419 L 349.052 126.0457 L 348.1075 129.8238 L 344.1072 135.3056 L 341.6071 137.528 L 331.3286 136.3428 L 329.4951 137.8243 L 326.3282 138.7133 L 318.6055 132.6388 L 309.0492 132.6388 L 294.7705 126.9347 L 288.27 126.6384 L 285.1031 127.6014 L 279.4361 126.1939 L 277.7693 123.5271 L 281.7696 120.4898 L 283.6586 116.2673 L 287.5477 111.8225 L 289.159 111.8225 L 293.5482 115.8969 L 296.6595 115.8228 L 300.3264 111.6003 L 302.771 106.4148 L 302.9933 104.1183 L 300.9931 102.0441 L 296.8262 100.6366 L 295.715 98.7105 L 297.8262 96.2659 L 302.2154 96.5622 L 306.5491 98.266 L 310.6049 97.4512 L 319.55 91.0804 L 320.2167 89.1543 L 315.4941 84.191 L 312.7717 79.8944 L 311.9383 76.1163 L 313.8273 73.894 L 316.8276 73.4495 L 325.7726 75.746 L 330.0507 75.6719 L 335.7178 80.8574 L 341.996 78.561 L 349.1076 81.0797 L 351.2744 83.302 L 357.3304 85.154 L 361.4973 83.228 L 364.5531 83.228 L 369.609 80.487 L 377.7762 81.8204 L 382.9988 86.1911 L 383.61 90.0432 L 386.7213 92.7101 L 391.6105 94.7843 L 396.5553 102.933 L 400.5556 103.3034 L 402.6668 108.2667 L 405.2226 111.1558 L 404.7781 114.4894 L 401.0556 115.6747 Z" fill="#8cd5f7" fill-opacity="1" stroke="#000000" stroke-width="0.3636363557547579" paint-order="fill" stroke-opacity="1" stroke-dasharray="" stroke-linecap="butt" stroke-linejoin="miter" stroke-miterlimit="10" transform="matrix(1.100000023841858,0,0,1.100000023841858,-40.000003814697266,-26.649980545043945)" clip-path="none"/>
<path cursor="pointer" name="Mures" abbreviation="MS" d="M 349.552 237.9054 L 347.663 235.7571 L 346.663 231.3864 L 341.9404 228.6455 L 339.4958 225.9045 L 341.7182 221.2375 L 339.7736 218.6448 L 337.829 218.4225 L 336.44 214.7186 L 340.4403 210.6442 L 339.9958 207.2366 L 341.5515 202.94 L 345.7184 201.3102 L 346.7741 198.1989 L 345.8851 193.9764 L 349.6632 188.0501 L 351.6077 187.9019 L 356.6637 190.6428 L 363.1641 191.8281 L 370.4424 189.5316 L 371.3313 185.9758 L 374.6649 180.1977 L 379.4986 176.79 L 384.8878 179.2346 L 387.6102 173.1601 L 390.9994 167.2338 L 396.2775 163.2335 L 402.0557 161.9742 L 406.9449 160.1222 L 412.5564 161.3815 L 415.3344 162.789 L 415.6678 166.3448 L 418.4457 170.4933 L 419.1124 178.642 L 418.0012 184.8646 L 420.0014 192.3467 L 418.7235 201.6066 L 415.0566 204.866 L 412.6675 208.3478 L 407.2783 211.4591 L 403.4447 215.3112 L 402.2779 220.5708 L 397.2776 223.534 L 398.8888 227.6084 L 393.2217 230.5715 L 393.0551 232.4976 L 397.8887 238.8684 L 400.2222 240.4241 L 404.2225 240.7945 L 407.5005 243.5354 L 412.3342 249.0173 L 403.3336 249.8321 L 400.0556 251.6841 L 399.111 256.0548 L 393.6662 252.499 L 387.3325 252.8694 L 382.6099 254.0546 L 380.6653 252.2027 L 379.7764 247.7579 L 379.3319 239.0166 L 380.332 237.1646 L 374.4982 236.7942 L 369.8868 238.7943 L 365.442 238.3498 L 361.164 239.3129 L 356.5525 237.6091 L 349.552 237.9054 Z" fill="#8cd5f7" fill-opacity="1" stroke="#000000" stroke-width="0.3636363557547579" paint-order="fill" stroke-opacity="1" stroke-dasharray="" stroke-linecap="butt" stroke-linejoin="miter" stroke-miterlimit="10" transform="matrix(1.100000023841858,0,0,1.100000023841858,-40.000003814697266,-26.649980545043945)" clip-path="none"/>
<path cursor="pointer" name="Salaj" abbreviation="SJ" d="M 329.4951 137.8243 L 330.4396 139.3059 L 329.1062 146.0471 L 319.6611 149.1585 L 316.9942 152.7883 L 315.1052 152.4179 L 309.9382 154.5662 L 308.327 159.011 L 306.3268 161.2334 L 307.938 165.7522 L 306.9935 167.1597 L 303.1044 167.456 L 301.771 169.5302 L 298.7707 169.5302 L 299.3819 175.3825 L 294.5482 174.4936 L 292.437 171.3082 L 290.3257 173.6787 L 289.8812 176.6419 L 283.2141 176.8641 L 277.7137 175.9751 L 273.0467 173.6046 L 270.491 167.7523 L 268.1575 166.5671 L 259.9903 165.6781 L 256.7678 161.1593 L 252.3786 157.8998 L 247.7116 148.2695 L 247.1005 145.01 L 249.934 141.6765 L 253.1009 133.5277 L 255.8789 131.6017 L 264.2128 128.0459 L 267.1574 127.7496 L 273.8801 130.046 L 276.9915 132.787 L 282.2696 135.602 L 285.7698 132.1943 L 285.1031 127.6014 L 288.27 126.6384 L 294.7705 126.9347 L 309.0492 132.6388 L 318.6055 132.6388 L 326.3282 138.7133 L 329.4951 137.8243 Z" fill="#8cd5f7" fill-opacity="1" stroke="#000000" stroke-width="0.3636363557547579" paint-order="fill" stroke-opacity="1" stroke-dasharray="" stroke-linecap="butt" stroke-linejoin="miter" stroke-miterlimit="10" transform="matrix(1.100000023841858,0,0,1.100000023841858,-40.000003814697266,-26.649980545043945)" clip-path="none"/>
<path cursor="pointer" name="Satu Mare" abbreviation="SM" d="M 285.1031 127.6014 L 285.7698 132.1943 L 282.2696 135.602 L 276.9915 132.787 L 273.8801 130.046 L 267.1574 127.7496 L 264.2128 128.0459 L 255.8789 131.6017 L 253.1009 133.5277 L 251.7675 128.4163 L 246.8782 124.7864 L 244.1003 125.7494 L 239.8778 125.379 L 234.6552 114.9339 L 232.2106 112.8596 L 229.0437 106.7111 L 231.7105 100.2662 L 235.5441 95.9696 L 239.3222 94.3398 L 244.6559 93.9694 L 245.8782 90.3396 L 247.7672 90.0432 L 254.2677 93.2287 L 258.9346 92.1915 L 262.4904 88.7098 L 265.8796 87.5986 L 266.4907 84.2651 L 271.7689 80.7093 L 274.5468 76.7831 L 276.9359 75.746 L 277.1026 72.6346 L 278.6027 71.5234 L 283.4919 73.7458 L 286.2143 71.8198 L 289.9924 64.1896 L 292.6592 63.8933 L 296.8262 65.6712 L 304.3267 74.0421 L 311.9383 76.1163 L 312.7717 79.8944 L 315.4941 84.191 L 320.2167 89.1543 L 319.55 91.0804 L 310.6049 97.4512 L 306.5491 98.266 L 302.2154 96.5622 L 297.8262 96.2659 L 295.715 98.7105 L 296.8262 100.6366 L 300.9931 102.0441 L 302.9933 104.1183 L 302.771 106.4148 L 300.3264 111.6003 L 296.6595 115.8228 L 293.5482 115.8969 L 289.159 111.8225 L 287.5477 111.8225 L 283.6586 116.2673 L 281.7696 120.4898 L 277.7693 123.5271 L 279.4361 126.1939 L 285.1031 127.6014 Z" fill="#8cd5f7" fill-opacity="1" stroke="#000000" stroke-width="0.3636363557547579" paint-order="fill" stroke-opacity="1" stroke-dasharray="" stroke-linecap="butt" stroke-linejoin="miter" stroke-miterlimit="10" transform="matrix(1.100000023841858,0,0,1.100000023841858,-40.000003814697266,-26.649980545043945)" clip-path="none"/>
<path cursor="pointer" name="Arges" abbreviation="AG" d="M 368.8312 301.6135 L 380.5542 298.5763 L 384.61 298.2799 L 388.777 302.1321 L 392.2772 300.8727 L 398.111 300.7246 L 405.2226 301.9098 L 413.112 308.2806 L 416.5011 316.3553 L 418.6124 318.948 L 420.1125 322.5779 L 417.3901 330.0599 L 415.7233 337.0975 L 414.001 339.0976 L 410.8341 336.8011 L 409.1117 339.6902 L 409.2784 346.2833 L 412.1119 350.2836 L 413.112 354.1357 L 410.5007 357.9137 L 411.5008 367.6922 L 410.8341 375.2483 L 409.2229 380.9524 L 411.3897 383.3229 L 409.5007 386.5824 L 413.5009 392.7309 L 417.279 394.3607 L 415.8344 399.0277 L 416.4456 402.5835 L 414.7788 406.806 L 409.0006 405.1763 L 406.056 405.6948 L 403.1669 407.9172 L 397.9443 408.3617 L 395.2219 410.6581 L 389.5548 409.8432 L 386.7769 410.51 L 381.2209 407.9172 L 379.9986 399.324 L 380.5542 395.9904 L 379.1652 386.1379 L 377.1651 381.9154 L 378.8874 377.7669 L 374.7205 377.4706 L 372.7203 375.1001 L 369.5534 367.6922 L 369.3312 363.6178 L 363.2752 369.8405 L 361.0528 367.2477 L 365.9976 361.4695 L 364.6642 357.9137 L 366.0532 349.6168 L 368.2756 341.0237 L 367.8867 337.3938 L 365.7198 332.3564 L 365.8865 324.1336 L 367.4422 320.1333 L 366.2754 314.2811 L 369.4979 304.5767 L 368.8312 301.6135 Z" fill="#8cd5f7" fill-opacity="1" stroke="#000000" stroke-width="0.3636363557547579" paint-order="fill" stroke-opacity="1" stroke-dasharray="" stroke-linecap="butt" stroke-linejoin="miter" stroke-miterlimit="10" transform="matrix(1.100000023841858,0,0,1.100000023841858,-40.000003814697266,-26.649980545043945)" clip-path="none"/>
<path cursor="pointer" name="Sibiu" abbreviation="SB" d="M 380.5542 298.5763 L 368.8312 301.6135 L 355.6636 301.0949 L 345.774 303.0951 L 339.218 306.6509 L 332.3286 304.9471 L 321.6612 304.9471 L 311.9939 309.8363 L 310.6605 309.6881 L 312.5495 307.0954 L 310.2715 300.0578 L 311.6605 294.3537 L 310.5493 287.3162 L 312.4384 281.0195 L 313.8273 278.8712 L 316.8276 278.5749 L 320.9945 272.7967 L 317.3831 269.6113 L 317.2165 266.574 L 324.8837 267.0185 L 327.9394 263.4627 L 327.2172 259.3143 L 328.495 257.9808 L 332.8842 257.0919 L 336.9401 259.7587 L 339.3291 254.9436 L 349.2743 245.6096 L 349.552 237.9054 L 356.5525 237.6091 L 361.164 239.3129 L 365.442 238.3498 L 369.8868 238.7943 L 374.4982 236.7942 L 380.332 237.1646 L 379.3319 239.0166 L 379.7764 247.7579 L 380.6653 252.2027 L 382.6099 254.0546 L 387.3325 252.8694 L 393.6662 252.499 L 399.111 256.0548 L 393.8329 260.944 L 390.2771 262.796 L 389.8882 266.6481 L 387.9436 266.3518 L 382.1654 269.5372 L 383.1655 278.7971 L 378.5541 280.5009 L 377.2206 282.9455 L 379.1097 287.2421 L 380.5542 298.5763 Z" fill="#8cd5f7" fill-opacity="1" stroke="#000000" stroke-width="0.3636363557547579" paint-order="fill" stroke-opacity="1" stroke-dasharray="" stroke-linecap="butt" stroke-linejoin="miter" stroke-miterlimit="10" transform="matrix(1.100000023841858,0,0,1.100000023841858,-40.000003814697266,-26.649980545043945)" clip-path="none"/>
<path cursor="pointer" name="Valcea" abbreviation="VL" d="M 368.8312 301.6135 L 369.4979 304.5767 L 366.2754 314.2811 L 367.4422 320.1333 L 365.8865 324.1336 L 365.7198 332.3564 L 367.8867 337.3938 L 368.2756 341.0237 L 366.0532 349.6168 L 364.6642 357.9137 L 365.9976 361.4695 L 361.0528 367.2477 L 361.2751 362.877 L 359.2749 361.2473 L 355.608 366.1365 L 354.2746 371.5443 L 350.8855 376.5076 L 353.4412 391.6938 L 352.4411 392.5087 L 350.941 388.3603 L 345.774 393.1754 L 341.4404 392.805 L 336.44 397.1757 L 332.9398 393.9162 L 328.8284 395.7682 L 325.3281 390.5827 L 324.1614 385.9897 L 318.7721 381.9154 L 317.6054 377.4706 L 319.161 367.2477 L 318.661 356.5803 L 322.1057 344.3572 L 322.0501 339.9865 L 323.6614 334.5047 L 322.4391 328.9487 L 323.6058 323.615 L 320.7167 320.6519 L 316.772 320.9482 L 307.7158 318.7258 L 308.7159 316.059 L 307.938 309.9104 L 310.6605 309.6881 L 311.9939 309.8363 L 321.6612 304.9471 L 332.3286 304.9471 L 339.218 306.6509 L 345.774 303.0951 L 355.6636 301.0949 L 368.8312 301.6135 Z" fill="#8cd5f7" fill-opacity="1" stroke="#000000" stroke-width="0.3636363557547579" paint-order="fill" stroke-opacity="1" stroke-dasharray="" stroke-linecap="butt" stroke-linejoin="miter" stroke-miterlimit="10" transform="matrix(1.100000023841858,0,0,1.100000023841858,-40.000003814697266,-26.649980545043945)" clip-path="none"/>
<path cursor="pointer" name="Brasov" abbreviation="BV" d="M 418.6124 318.948 L 416.5011 316.3553 L 413.112 308.2806 L 405.2226 301.9098 L 398.111 300.7246 L 392.2772 300.8727 L 388.777 302.1321 L 384.61 298.2799 L 380.5542 298.5763 L 379.1097 287.2421 L 377.2206 282.9455 L 378.5541 280.5009 L 383.1655 278.7971 L 382.1654 269.5372 L 387.9436 266.3518 L 389.8882 266.6481 L 390.2771 262.796 L 393.8329 260.944 L 399.111 256.0548 L 400.0556 251.6841 L 403.3336 249.8321 L 412.3342 249.0173 L 419.2791 247.0171 L 421.3904 247.2394 L 427.5019 250.7952 L 429.1687 252.8694 L 429.4465 255.9066 L 432.3356 258.7216 L 435.4469 258.4994 L 436.447 260.7959 L 435.558 263.9072 L 435.1135 274.7968 L 435.8914 277.4637 L 442.2807 282.7233 L 442.3918 285.8346 L 448.6145 284.6494 L 450.7257 286.8717 L 456.615 289.2423 L 460.0597 292.2795 L 462.0043 295.9835 L 466.3379 298.8726 L 469.6159 303.5396 L 466.0601 311.0956 L 459.6152 308.4288 L 456.8928 309.2437 L 454.226 314.6514 L 451.6703 314.2811 L 449.6146 311.6883 L 447.0588 312.355 L 439.2249 310.4289 L 428.3353 312.2068 L 426.4463 313.1699 L 422.5016 318.0591 L 418.6124 318.948 Z" fill="#8cd5f7" fill-opacity="1" stroke="#000000" stroke-width="0.3636363557547579" paint-order="fill" stroke-opacity="1" stroke-dasharray="" stroke-linecap="butt" stroke-linejoin="miter" stroke-miterlimit="10" transform="matrix(1.100000023841858,0,0,1.100000023841858,-40.000003814697266,-26.649980545043945)" clip-path="none"/>
<path cursor="pointer" name="Covasna" abbreviation="CV" d="M 469.6159 303.5396 L 466.3379 298.8726 L 462.0043 295.9835 L 460.0597 292.2795 L 456.615 289.2423 L 450.7257 286.8717 L 448.6145 284.6494 L 442.3918 285.8346 L 442.2807 282.7233 L 435.8914 277.4637 L 435.1135 274.7968 L 435.558 263.9072 L 436.447 260.7959 L 435.4469 258.4994 L 432.3356 258.7216 L 429.4465 255.9066 L 429.1687 252.8694 L 432.0022 247.3875 L 436.6137 242.9428 L 438.9471 239.6092 L 443.6697 235.9793 L 448.2256 239.5351 L 450.948 246.7949 L 457.3373 252.4249 L 463.2822 252.9435 L 479.7833 249.4617 L 484.4503 246.7949 L 489.2284 250.0544 L 489.284 254.7954 L 491.7286 256.5733 L 494.5066 261.5366 L 490.3952 268.0556 L 489.3395 271.0929 L 487.7283 281.6862 L 488.6173 286.5754 L 484.2836 298.7244 L 481.4501 300.0578 L 478.2277 297.9836 L 475.283 302.6506 L 469.6159 303.5396 Z" fill="#8cd5f7" fill-opacity="1" stroke="#000000" stroke-width="0.3636363557547579" paint-order="fill" stroke-opacity="1" stroke-dasharray="" stroke-linecap="butt" stroke-linejoin="miter" stroke-miterlimit="10" transform="matrix(1.100000023841858,0,0,1.100000023841858,-40.000003814697266,-26.649980545043945)" clip-path="none"/>
<path cursor="pointer" name="Harghita" abbreviation="HR" d="M 479.7833 249.4617 L 463.2822 252.9435 L 457.3373 252.4249 L 450.948 246.7949 L 448.2256 239.5351 L 443.6697 235.9793 L 438.9471 239.6092 L 436.6137 242.9428 L 432.0022 247.3875 L 429.1687 252.8694 L 427.5019 250.7952 L 421.3904 247.2394 L 419.2791 247.0171 L 412.3342 249.0173 L 407.5005 243.5354 L 404.2225 240.7945 L 400.2222 240.4241 L 397.8887 238.8684 L 393.0551 232.4976 L 393.2217 230.5715 L 398.8888 227.6084 L 397.2776 223.534 L 402.2779 220.5708 L 403.4447 215.3112 L 407.2783 211.4591 L 412.6675 208.3478 L 415.0566 204.866 L 418.7235 201.6066 L 420.0014 192.3467 L 418.0012 184.8646 L 419.1124 178.642 L 418.4457 170.4933 L 415.6678 166.3448 L 415.3344 162.789 L 420.1681 163.5298 L 422.1126 158.6406 L 425.9462 157.159 L 428.0575 157.6776 L 438.8916 165.9744 L 444.392 165.0855 L 448.4478 166.9375 L 451.7814 173.6787 L 456.3372 178.7161 L 456.3372 181.3829 L 454.1704 181.2348 L 453.1704 183.6053 L 453.6704 198.9397 L 457.4484 204.4216 L 459.0597 204.3475 L 458.6152 200.7917 L 459.893 200.125 L 465.0045 201.4584 L 465.1156 208.3478 L 466.1157 212.5703 L 468.6159 218.2003 L 466.2824 219.9782 L 465.3379 223.7562 L 466.5602 225.9045 L 472.505 227.1639 L 474.3385 228.7936 L 474.1163 234.4236 L 475.5608 235.0904 L 479.6722 233.1643 L 482.5613 233.9051 L 481.6723 242.4242 L 479.7833 249.4617 Z" fill="#8cd5f7" fill-opacity="1" stroke="#000000" stroke-width="0.3636363557547579" paint-order="fill" stroke-opacity="1" stroke-dasharray="" stroke-linecap="butt" stroke-linejoin="miter" stroke-miterlimit="10" transform="matrix(1.100000023841858,0,0,1.100000023841858,-40.000003814697266,-26.649980545043945)" clip-path="none"/>
<path cursor="pointer" name="Iasi" abbreviation="IS" d="M 506.1185 131.6758 L 511.3966 125.6013 L 514.2302 127.0829 L 524.5642 127.0829 L 529.7312 131.0091 L 532.9537 129.1571 L 531.6203 125.0827 L 532.9537 123.2307 L 539.0652 125.5272 L 541.5654 125.7494 L 546.1768 119.6009 L 550.4549 119.8231 L 553.844 118.1933 L 556.5109 125.6013 L 562.0668 127.7496 L 563.2891 129.3793 L 562.0668 132.5647 L 562.7335 136.3428 L 564.4559 137.6762 L 566.7894 142.6395 L 572.1231 144.7137 L 576.2345 152.0476 L 577.4568 157.5294 L 579.7903 160.2703 L 585.7351 165.1596 L 585.7907 166.493 L 590.1243 168.345 L 591.3466 167.7523 L 594.8469 173.3824 L 596.1247 176.6419 L 597.5137 185.235 L 591.0688 187.4574 L 589.1798 186.2722 L 587.0685 187.6797 L 578.6235 184.4202 L 579.6236 181.0125 L 578.1235 178.4198 L 575.7344 181.6792 L 571.5675 176.79 L 566.2893 173.3824 L 566.0671 179.3828 L 568.9562 179.9013 L 566.5671 182.2719 L 562.2335 181.3088 L 560.4 183.9757 L 557.0109 184.8646 L 553.1773 183.7535 L 547.288 184.6424 L 540.0653 184.1239 L 536.2317 177.2345 L 537.454 174.5676 L 542.1765 171.9008 L 536.4539 164.1965 L 533.2315 164.8633 L 529.6757 168.2709 L 525.6198 167.5301 L 522.7307 170.6414 L 519.2861 170.1229 L 514.0079 166.3448 L 509.841 164.4188 L 505.3406 164.0484 L 502.5071 156.6405 L 499.3402 151.8994 L 495.0622 147.6028 L 499.8403 146.5657 L 500.7292 144.7137 L 496.9512 141.0838 L 497.5623 138.417 L 504.0628 139.2318 L 505.8962 138.4911 L 507.0074 133.0092 L 506.1185 131.6758 Z" fill="#8cd5f7" fill-opacity="1" stroke="#000000" stroke-width="0.3636363557547579" paint-order="fill" stroke-opacity="1" stroke-dasharray="" stroke-linecap="butt" stroke-linejoin="miter" stroke-miterlimit="10" transform="matrix(1.100000023841858,0,0,1.100000023841858,-40.000003814697266,-26.649980545043945)" clip-path="none"/>
<path cursor="pointer" name="Neamt" abbreviation="NT" d="M 495.0622 147.6028 L 499.3402 151.8994 L 502.5071 156.6405 L 505.3406 164.0484 L 509.841 164.4188 L 514.0079 166.3448 L 519.2861 170.1229 L 522.7307 170.6414 L 525.6198 167.5301 L 529.6757 168.2709 L 533.2315 164.8633 L 536.4539 164.1965 L 542.1765 171.9008 L 537.454 174.5676 L 536.2317 177.2345 L 540.0653 184.1239 L 541.8432 190.9391 L 541.3987 194.9394 L 538.8985 196.1988 L 531.398 194.1246 L 525.4532 194.8653 L 522.953 192.0503 L 522.953 190.1243 L 520.2861 188.6427 L 519.8972 191.4577 L 517.8971 193.5319 L 517.9526 195.7543 L 514.8969 197.5322 L 510.5077 195.0876 L 507.5075 197.5322 L 503.6183 199.1619 L 500.9515 201.9029 L 492.9509 201.9029 L 490.0062 204.792 L 483.9503 204.866 L 481.7835 199.1619 L 478.9499 198.7915 L 475.0608 201.6066 L 471.3938 202.2733 L 467.2824 200.7917 L 465.0045 201.4584 L 459.893 200.125 L 458.6152 200.7917 L 459.0597 204.3475 L 457.4484 204.4216 L 453.6704 198.9397 L 453.1704 183.6053 L 454.1704 181.2348 L 456.3372 181.3829 L 456.3372 178.7161 L 451.7814 173.6787 L 448.4478 166.9375 L 444.392 165.0855 L 446.0588 159.0851 L 448.8923 155.7515 L 452.2814 153.3069 L 453.8926 149.8252 L 450.948 145.6767 L 452.3925 144.8619 L 457.5596 149.0844 L 464.0044 146.9361 L 467.5602 148.1214 L 472.005 147.3065 L 478.9499 147.4546 L 487.0616 143.8988 L 492.0064 144.3433 L 495.0622 147.6028 Z" fill="#8cd5f7" fill-opacity="1" stroke="#000000" stroke-width="0.3636363557547579" paint-order="fill" stroke-opacity="1" stroke-dasharray="" stroke-linecap="butt" stroke-linejoin="miter" stroke-miterlimit="10" transform="matrix(1.100000023841858,0,0,1.100000023841858,-40.000003814697266,-26.649980545043945)" clip-path="none"/>
<path cursor="pointer" name="Prahova" abbreviation="PH" d="M 426.4463 313.1699 L 428.3353 312.2068 L 439.2249 310.4289 L 447.0588 312.355 L 449.6146 311.6883 L 451.6703 314.2811 L 454.226 314.6514 L 456.8928 309.2437 L 459.6152 308.4288 L 466.0601 311.0956 L 474.1718 319.9852 L 476.6164 326.2819 L 476.2831 329.6155 L 478.7832 332.4305 L 479.6722 335.6159 L 484.2836 336.1344 L 487.1727 338.8754 L 489.6173 337.5419 L 489.5618 340.9496 L 492.9509 345.0239 L 494.2288 353.6171 L 497.6179 355.0987 L 499.8958 357.9878 L 497.6734 361.9881 L 497.8957 363.6178 L 501.5626 368.433 L 499.0624 371.9888 L 496.1178 373.6926 L 491.7286 373.6185 L 489.7285 375.5446 L 485.2837 374.7297 L 479.7833 377.9892 L 472.894 377.1743 L 468.9492 378.4337 L 465.0045 378.4337 L 464.1156 379.8412 L 461.282 378.1373 L 456.8928 372.5814 L 451.7258 371.0257 L 450.5035 369.6182 L 450.3924 362.6548 L 448.3922 360.1361 L 445.8921 360.5806 L 442.7807 357.0988 L 442.0029 350.8762 L 438.5582 345.7647 L 435.1691 338.7272 L 432.2245 334.5047 L 432.3911 330.6526 L 430.4466 326.5782 L 428.5575 325.1707 L 426.4463 313.1699 Z" fill="#8cd5f7" fill-opacity="1" stroke="#000000" stroke-width="0.3636363557547579" paint-order="fill" stroke-opacity="1" stroke-dasharray="" stroke-linecap="butt" stroke-linejoin="miter" stroke-miterlimit="10" transform="matrix(1.100000023841858,0,0,1.100000023841858,-40.000003814697266,-26.649980545043945)" clip-path="none"/>
<path cursor="pointer" name="Suceava" abbreviation="SV" d="M 506.1185 131.6758 L 507.0074 133.0092 L 505.8962 138.4911 L 504.0628 139.2318 L 497.5623 138.417 L 496.9512 141.0838 L 500.7292 144.7137 L 499.8403 146.5657 L 495.0622 147.6028 L 492.0064 144.3433 L 487.0616 143.8988 L 478.9499 147.4546 L 472.005 147.3065 L 467.5602 148.1214 L 464.0044 146.9361 L 457.5596 149.0844 L 452.3925 144.8619 L 450.948 145.6767 L 453.8926 149.8252 L 452.2814 153.3069 L 448.8923 155.7515 L 446.0588 159.0851 L 444.392 165.0855 L 438.8916 165.9744 L 428.0575 157.6776 L 425.9462 157.159 L 422.1126 158.6406 L 420.1681 163.5298 L 415.3344 162.789 L 412.5564 161.3815 L 406.9449 160.1222 L 406.7227 153.6773 L 407.7228 148.5658 L 404.8337 145.7508 L 406.6671 141.5283 L 403.5558 134.4908 L 406.3893 132.6388 L 405.7226 129.8238 L 409.1117 126.1198 L 406.5004 120.638 L 401.0556 115.6747 L 404.7781 114.4894 L 405.2226 111.1558 L 402.6668 108.2667 L 400.5556 103.3034 L 405.167 102.5626 L 409.0562 101.007 L 411.723 98.5624 L 417.9457 88.7098 L 420.6125 86.8578 L 450.7257 84.1169 L 460.9487 81.1537 L 463.8378 81.5241 L 467.7825 80.4129 L 472.2828 80.4129 L 473.2273 86.043 L 474.5607 87.969 L 483.228 94.5621 L 491.2841 105.748 L 498.0624 114.2671 L 500.1736 122.1936 L 500.507 127.8236 L 503.5627 131.3054 L 506.1185 131.6758 Z" fill="#8cd5f7" fill-opacity="1" stroke="#000000" stroke-width="0.3636363557547579" paint-order="fill" stroke-opacity="1" stroke-dasharray="" stroke-linecap="butt" stroke-linejoin="miter" stroke-miterlimit="10" transform="matrix(1.100000023841858,0,0,1.100000023841858,-40.000003814697266,-26.649980545043945)" clip-path="none"/>
<path cursor="pointer" name="Bacau" abbreviation="BC" d="M 494.5066 261.5366 L 491.7286 256.5733 L 489.284 254.7954 L 489.2284 250.0544 L 484.4503 246.7949 L 479.7833 249.4617 L 481.6723 242.4242 L 482.5613 233.9051 L 479.6722 233.1643 L 475.5608 235.0904 L 474.1163 234.4236 L 474.3385 228.7936 L 472.505 227.1639 L 466.5602 225.9045 L 465.3379 223.7562 L 466.2824 219.9782 L 468.6159 218.2003 L 466.1157 212.5703 L 465.1156 208.3478 L 465.0045 201.4584 L 467.2824 200.7917 L 471.3938 202.2733 L 475.0608 201.6066 L 478.9499 198.7915 L 481.7835 199.1619 L 483.9503 204.866 L 490.0062 204.792 L 492.9509 201.9029 L 500.9515 201.9029 L 503.6183 199.1619 L 507.5075 197.5322 L 510.5077 195.0876 L 514.8969 197.5322 L 517.9526 195.7543 L 517.8971 193.5319 L 519.8972 191.4577 L 520.2861 188.6427 L 522.953 190.1243 L 522.953 192.0503 L 525.4532 194.8653 L 531.398 194.1246 L 538.8985 196.1988 L 541.3987 194.9394 L 546.3991 200.0509 L 548.3436 203.0141 L 548.4548 209.459 L 555.0663 221.0894 L 557.4554 226.7935 L 559.6778 236.7942 L 560.1778 248.4246 L 555.4552 247.6838 L 552.2884 249.3877 L 549.5659 247.6838 L 542.0099 248.4987 L 533.5648 256.277 L 528.3978 255.0177 L 526.0643 257.8327 L 512.4523 256.1289 L 506.3407 256.4252 L 504.5628 257.4623 L 503.785 261.7589 L 501.8404 262.7219 L 494.5066 261.5366 Z" fill="#8cd5f7" fill-opacity="1" stroke="#000000" stroke-width="0.3636363557547579" paint-order="fill" stroke-opacity="1" stroke-dasharray="" stroke-linecap="butt" stroke-linejoin="miter" stroke-miterlimit="10" transform="matrix(1.100000023841858,0,0,1.100000023841858,-40.000003814697266,-26.649980545043945)" clip-path="none"/>
<path cursor="pointer" name="Braila" abbreviation="BR" d="M 540.2875 372.7296 L 540.4542 367.7663 L 538.7874 363.5437 L 542.6766 361.7658 L 544.7323 352.3578 L 541.2876 350.6539 L 540.5098 346.1351 L 537.8429 343.7646 L 536.5095 338.6531 L 534.676 341.0977 L 532.3425 341.32 L 531.398 337.3938 L 532.8426 335.8381 L 538.0096 334.0602 L 546.8991 334.2824 L 547.1769 329.5414 L 552.1772 327.4672 L 554.4552 320.2074 L 558.2332 313.6143 L 564.4559 310.2808 L 568.1228 311.9105 L 572.3453 311.7624 L 576.3456 315.7626 L 579.9014 317.6146 L 586.4018 317.8369 L 593.4579 319.0221 L 592.9578 323.4669 L 590.7355 328.6524 L 596.5136 332.6527 L 598.736 331.6897 L 600.0695 333.5416 L 598.0138 338.505 L 601.6251 340.5792 L 603.2919 343.0238 L 600.3472 347.2463 L 601.1251 352.1355 L 600.4028 353.7653 L 601.1251 359.1731 L 600.0139 360.5806 L 600.1806 365.4698 L 597.2915 370.2849 L 595.7358 376.2113 L 591.9022 377.6929 L 586.4018 376.4335 L 582.7349 373.174 L 578.3457 373.2481 L 571.7897 375.5446 L 554.0107 375.1001 L 550.566 373.8407 L 545.6212 374.8779 L 540.2875 372.7296 Z" fill="#8cd5f7" fill-opacity="1" stroke="#000000" stroke-width="0.3636363557547579" paint-order="fill" stroke-opacity="1" stroke-dasharray="" stroke-linecap="butt" stroke-linejoin="miter" stroke-miterlimit="10" transform="matrix(1.100000023841858,0,0,1.100000023841858,-40.000003814697266,-26.649980545043945)" clip-path="none"/>
<path cursor="pointer" name="Buzau" abbreviation="BZ" d="M 554.4552 320.2074 L 552.1772 327.4672 L 547.1769 329.5414 L 546.8991 334.2824 L 538.0096 334.0602 L 532.8426 335.8381 L 531.398 337.3938 L 532.3425 341.32 L 534.676 341.0977 L 536.5095 338.6531 L 537.8429 343.7646 L 540.5098 346.1351 L 541.2876 350.6539 L 544.7323 352.3578 L 542.6766 361.7658 L 538.7874 363.5437 L 540.4542 367.7663 L 540.2875 372.7296 L 538.5652 374.4334 L 540.4542 376.2854 L 535.3427 378.1373 L 534.0649 373.9148 L 529.6201 372.5073 L 527.2866 374.2852 L 520.7306 372.0628 L 517.5082 372.5073 L 512.1745 371.248 L 505.174 371.0998 L 501.5626 368.433 L 497.8957 363.6178 L 497.6734 361.9881 L 499.8958 357.9878 L 497.6179 355.0987 L 494.2288 353.6171 L 492.9509 345.0239 L 489.5618 340.9496 L 489.6173 337.5419 L 487.1727 338.8754 L 484.2836 336.1344 L 479.6722 335.6159 L 478.7832 332.4305 L 476.2831 329.6155 L 476.6164 326.2819 L 474.1718 319.9852 L 466.0601 311.0956 L 469.6159 303.5396 L 475.283 302.6506 L 478.2277 297.9836 L 481.4501 300.0578 L 484.2836 298.7244 L 488.6173 286.5754 L 487.7283 281.6862 L 490.5063 284.4271 L 497.3401 295.8353 L 499.6736 298.2059 L 506.0629 298.5763 L 511.5077 303.91 L 516.4525 307.1694 L 520.4528 308.0584 L 521.2862 305.6879 L 525.6754 306.725 L 527.62 311.5401 L 531.3425 314.3551 L 536.065 312.7995 L 536.6762 316.2071 L 540.1208 314.2811 L 544.9545 315.7626 L 547.0102 319.3184 L 554.4552 320.2074 Z" fill="#8cd5f7" fill-opacity="1" stroke="#000000" stroke-width="0.3636363557547579" paint-order="fill" stroke-opacity="1" stroke-dasharray="" stroke-linecap="butt" stroke-linejoin="miter" stroke-miterlimit="10" transform="matrix(1.100000023841858,0,0,1.100000023841858,-40.000003814697266,-26.649980545043945)" clip-path="none"/>
<path cursor="pointer" name="Galati" abbreviation="GL" d="M 597.5137 254.2028 L 596.2914 263.0923 L 598.8471 270.6484 L 599.2916 274.945 L 598.236 279.2416 L 600.9584 285.0198 L 601.9585 297.0206 L 598.9583 297.4651 L 595.2358 300.7246 L 600.3472 303.7618 L 601.9585 306.6509 L 602.014 309.7622 L 605.2365 313.8366 L 603.7364 316.9479 L 599.4583 315.9849 L 594.2913 317.6146 L 593.4579 319.0221 L 586.4018 317.8369 L 579.9014 317.6146 L 576.3456 315.7626 L 572.3453 311.7624 L 568.1228 311.9105 L 564.4559 310.2808 L 562.0668 307.3176 L 560.1222 299.4652 L 556.4553 293.9093 L 551.8439 289.5386 L 543.7322 268.8705 L 543.8433 262.4256 L 549.3993 256.7956 L 554.4552 255.9066 L 557.4554 253.0175 L 561.0667 252.7212 L 564.067 257.3141 L 565.4559 262.2774 L 567.4561 263.3886 L 568.1783 257.6845 L 566.2893 253.5361 L 567.2894 251.6841 L 578.179 252.8694 L 580.2903 255.7585 L 582.9572 252.7212 L 585.4573 251.6841 L 595.1802 254.8695 L 597.5137 254.2028 Z" fill="#8cd5f7" fill-opacity="1" stroke="#000000" stroke-width="0.3636363557547579" paint-order="fill" stroke-opacity="1" stroke-dasharray="" stroke-linecap="butt" stroke-linejoin="miter" stroke-miterlimit="10" transform="matrix(1.100000023841858,0,0,1.100000023841858,-40.000003814697266,-26.649980545043945)" clip-path="none"/>
<path cursor="pointer" name="Vaslui" abbreviation="VS" d="M 597.5137 185.235 L 601.1251 192.9393 L 601.1251 194.6431 L 604.7364 201.7547 L 605.6254 206.8662 L 604.3475 210.3479 L 604.0142 216.4224 L 605.7365 219.0152 L 605.8476 223.3858 L 602.2918 231.3123 L 601.7362 236.4979 L 599.0694 238.2017 L 597.4582 241.4612 L 599.7361 246.1282 L 597.5137 254.2028 L 595.1802 254.8695 L 585.4573 251.6841 L 582.9572 252.7212 L 580.2903 255.7585 L 578.179 252.8694 L 567.2894 251.6841 L 566.2893 253.5361 L 568.1783 257.6845 L 567.4561 263.3886 L 565.4559 262.2774 L 564.067 257.3141 L 561.0667 252.7212 L 560.1778 248.4246 L 559.6778 236.7942 L 557.4554 226.7935 L 555.0663 221.0894 L 548.4548 209.459 L 548.3436 203.0141 L 546.3991 200.0509 L 541.3987 194.9394 L 541.8432 190.9391 L 540.0653 184.1239 L 547.288 184.6424 L 553.1773 183.7535 L 557.0109 184.8646 L 560.4 183.9757 L 562.2335 181.3088 L 566.5671 182.2719 L 568.9562 179.9013 L 566.0671 179.3828 L 566.2893 173.3824 L 571.5675 176.79 L 575.7344 181.6792 L 578.1235 178.4198 L 579.6236 181.0125 L 578.6235 184.4202 L 587.0685 187.6797 L 589.1798 186.2722 L 591.0688 187.4574 L 597.5137 185.235 Z" fill="#8cd5f7" fill-opacity="1" stroke="#000000" stroke-width="0.3636363557547579" paint-order="fill" stroke-opacity="1" stroke-dasharray="" stroke-linecap="butt" stroke-linejoin="miter" stroke-miterlimit="10" transform="matrix(1.100000023841858,0,0,1.100000023841858,-40.000003814697266,-26.649980545043945)" clip-path="none"/>
<path cursor="pointer" name="Vrancea" abbreviation="VN" d="M 560.1778 248.4246 L 561.0667 252.7212 L 557.4554 253.0175 L 554.4552 255.9066 L 549.3993 256.7956 L 543.8433 262.4256 L 543.7322 268.8705 L 551.8439 289.5386 L 556.4553 293.9093 L 560.1222 299.4652 L 562.0668 307.3176 L 564.4559 310.2808 L 558.2332 313.6143 L 554.4552 320.2074 L 547.0102 319.3184 L 544.9545 315.7626 L 540.1208 314.2811 L 536.6762 316.2071 L 536.065 312.7995 L 531.3425 314.3551 L 527.62 311.5401 L 525.6754 306.725 L 521.2862 305.6879 L 520.4528 308.0584 L 516.4525 307.1694 L 511.5077 303.91 L 506.0629 298.5763 L 499.6736 298.2059 L 497.3401 295.8353 L 490.5063 284.4271 L 487.7283 281.6862 L 489.3395 271.0929 L 490.3952 268.0556 L 494.5066 261.5366 L 501.8404 262.7219 L 503.785 261.7589 L 504.5628 257.4623 L 506.3407 256.4252 L 512.4523 256.1289 L 526.0643 257.8327 L 528.3978 255.0177 L 533.5648 256.277 L 542.0099 248.4987 L 549.5659 247.6838 L 552.2884 249.3877 L 555.4552 247.6838 L 560.1778 248.4246 Z" fill="#8cd5f7" fill-opacity="1" stroke="#000000" stroke-width="0.3636363557547579" paint-order="fill" stroke-opacity="1" stroke-dasharray="" stroke-linecap="butt" stroke-linejoin="miter" stroke-miterlimit="10" transform="matrix(1.100000023841858,0,0,1.100000023841858,-40.000003814697266,-26.649980545043945)" clip-path="none"/>
<path cursor="pointer" name="Ilfov" abbreviation="IF" d="M 464.1156 379.8412 L 465.0045 378.4337 L 468.9492 378.4337 L 472.894 377.1743 L 479.7833 377.9892 L 484.617 379.5448 L 485.5615 384.9526 L 490.1729 388.138 L 490.2285 390.6567 L 487.6172 392.4346 L 486.006 396.0645 L 490.3396 399.9907 L 488.8395 402.5094 L 492.0064 405.1022 L 490.5618 407.3986 L 484.2281 411.1767 L 480.8389 416.0659 L 480.1167 418.5105 L 474.0607 423.9924 L 470.3382 423.7701 L 463.2822 418.066 L 461.1154 417.5475 L 455.615 413.8435 L 454.6149 410.8804 L 455.2261 406.7319 L 457.5596 399.2499 L 456.0039 395.62 L 460.6709 390.8049 L 461.3376 388.3603 L 459.1708 387.5454 L 461.6709 382.3599 L 464.1156 379.8412 Z M 475.6719 408.0653 L 472.8384 405.5467 L 474.4496 400.8797 L 469.3937 399.5462 L 468.8937 393.3236 L 464.5045 394.9533 L 461.282 400.4352 L 464.6712 401.9909 L 464.6712 404.8799 L 460.3375 405.2503 L 460.3375 408.2135 L 464.56 412.8805 L 468.1714 413.8435 L 471.2827 417.992 L 473.0606 416.4363 L 471.0605 411.3248 L 471.5605 409.9914 L 474.6719 410.9544 L 475.6719 408.0653 Z" fill="#8cd5f7" fill-opacity="1" stroke="#000000" stroke-width="0.3636363557547579" paint-order="fill" stroke-opacity="1" stroke-dasharray="" stroke-linecap="butt" stroke-linejoin="miter" stroke-miterlimit="10" transform="matrix(1.100000023841858,0,0,1.100000023841858,-40.000003814697266,-26.649980545043945)" clip-path="none"/>
<path cursor="pointer" name="Tulcea" abbreviation="TL" d="M 595.7358 376.2113 L 597.2915 370.2849 L 600.1806 365.4698 L 600.0139 360.5806 L 601.1251 359.1731 L 600.4028 353.7653 L 601.1251 352.1355 L 600.3472 347.2463 L 603.2919 343.0238 L 601.6251 340.5792 L 598.0138 338.505 L 600.0695 333.5416 L 598.736 331.6897 L 596.5136 332.6527 L 590.7355 328.6524 L 592.9578 323.4669 L 593.4579 319.0221 L 594.2913 317.6146 L 599.4583 315.9849 L 603.7364 316.9479 L 605.2365 313.8366 L 608.57 314.6514 L 612.8481 325.467 L 617.6818 327.9857 L 623.46 329.3932 L 628.8492 332.0601 L 637.4609 333.838 L 641.8501 333.3194 L 643.3502 332.1341 L 641.0723 330.9489 L 642.4057 325.0225 L 644.0725 324.5781 L 651.5175 328.7265 L 653.7398 324.8744 L 657.0734 323.7632 L 660.2959 320.9482 L 666.963 318.1332 L 670.3521 314.7996 L 673.7968 314.8737 L 676.297 312.7995 L 683.2975 313.9107 L 692.3536 316.8738 L 697.6873 321.1704 L 699.2986 327.9116 L 698.6319 333.1713 L 696.3539 333.2453 L 699.2986 337.9864 L 701.4098 338.1346 L 699.2986 342.3571 L 699.0208 350.5058 L 697.9651 354.7283 L 697.6873 361.7658 L 696.1317 364.3586 L 697.0206 366.0624 L 693.5204 369.9145 L 690.1868 370.0627 L 677.6304 372.4332 L 669.5743 373.2481 L 667.2408 374.063 L 660.8515 378.8041 L 657.4068 383.1006 L 655.5733 377.9892 L 663.5183 375.026 L 666.4074 370.2109 L 663.1849 365.7661 L 663.7405 369.0256 L 660.907 369.7664 L 659.7958 366.7291 L 660.1292 359.3953 L 663.1294 358.21 L 663.2961 356.0617 L 659.5736 353.9134 L 654.851 353.469 L 654.0732 355.6173 L 651.2952 356.3581 L 648.295 359.8398 L 648.0172 364.6549 L 653.9621 370.5072 L 652.2953 374.5075 L 653.6843 376.2113 L 649.3507 377.1002 L 644.7948 379.9152 L 643.4058 384.2859 L 635.9053 381.6931 L 631.6828 383.1006 L 626.5713 383.1747 L 621.8487 381.2487 L 618.4596 377.3225 L 614.7371 377.3965 L 613.4037 381.3968 L 610.6257 382.1376 L 604.9031 376.878 L 601.6251 375.5446 L 595.7358 376.2113 Z" fill="#8cd5f7" fill-opacity="1" stroke="#000000" stroke-width="0.3636363557547579" paint-order="fill" stroke-opacity="1" stroke-dasharray="" stroke-linecap="butt" stroke-linejoin="miter" stroke-miterlimit="10" transform="matrix(1.100000023841858,0,0,1.100000023841858,-40.000003814697266,-26.649980545043945)" clip-path="none"/>
<path cursor="pointer" name="Dolj" abbreviation="DJ" d="M 338.8846 467.7732 L 315.9942 461.032 L 310.8271 458.3651 L 305.2156 459.3282 L 302.3821 458.7355 L 295.3816 454.4389 L 284.8809 453.4759 L 278.8805 453.9945 L 271.9911 456.4391 L 257.9346 456.9576 L 254.3232 454.8834 L 253.6565 450.9572 L 256.4345 442.0677 L 265.6018 439.1045 L 266.8796 436.3636 L 264.9351 432.6596 L 270.6577 427.2519 L 273.8801 426.5852 L 273.6579 420.5847 L 277.4359 409.9914 L 280.9917 408.1394 L 283.5475 408.2135 L 279.9361 405.843 L 280.2695 400.8797 L 283.1585 399.6203 L 286.4366 395.7682 L 286.1588 394.5829 L 290.2702 394.4348 L 298.3263 392.5828 L 304.4934 388.5084 L 314.7163 385.9157 L 315.0497 376.7298 L 317.6054 377.4706 L 318.7721 381.9154 L 324.1614 385.9897 L 325.3281 390.5827 L 328.8284 395.7682 L 325.1615 401.5464 L 328.5506 404.5836 L 331.3286 408.5098 L 333.5509 409.3988 L 338.7735 416.4363 L 341.107 420.7329 L 346.9408 425.1036 L 346.9963 432.8819 L 348.2742 435.4006 L 344.3295 436.3636 L 343.4405 441.0306 L 348.7187 443.8456 L 348.7187 447.1051 L 346.8296 448.2904 L 347.4408 452.8092 L 346.5518 455.3279 L 342.7182 460.143 L 338.8846 467.7732 Z" fill="#8cd5f7" fill-opacity="1" stroke="#000000" stroke-width="0.3636363557547579" paint-order="fill" stroke-opacity="1" stroke-dasharray="" stroke-linecap="butt" stroke-linejoin="miter" stroke-miterlimit="10" transform="matrix(1.100000023841858,0,0,1.100000023841858,-40.000003814697266,-26.649980545043945)" clip-path="none"/>
<path cursor="pointer" name="Gorj" abbreviation="GJ" d="M 317.6054 377.4706 L 315.0497 376.7298 L 314.7163 385.9157 L 304.4934 388.5084 L 298.3263 392.5828 L 296.7706 389.2492 L 293.2148 385.4712 L 287.6589 381.545 L 276.547 377.7669 L 273.8801 375.989 L 269.102 370.9517 L 263.6572 363.9882 L 262.4349 355.6913 L 262.9905 351.7651 L 258.5457 346.95 L 255.9344 345.6906 L 250.7118 344.9498 L 248.1561 341.0977 L 245.6559 339.7643 L 245.4337 336.5048 L 241.0445 335.2455 L 241.6557 332.2823 L 248.2117 326.2078 L 262.1571 321.8371 L 265.3795 323.7632 L 271.3244 325.6152 L 275.5469 323.9854 L 281.8807 325.0225 L 285.492 323.0224 L 292.8814 320.9482 L 297.4929 322.8002 L 307.7158 318.7258 L 316.772 320.9482 L 320.7167 320.6519 L 323.6058 323.615 L 322.4391 328.9487 L 323.6614 334.5047 L 322.0501 339.9865 L 322.1057 344.3572 L 318.661 356.5803 L 319.161 367.2477 L 317.6054 377.4706 Z" fill="#8cd5f7" fill-opacity="1" stroke="#000000" stroke-width="0.3636363557547579" paint-order="fill" stroke-opacity="1" stroke-dasharray="" stroke-linecap="butt" stroke-linejoin="miter" stroke-miterlimit="10" transform="matrix(1.100000023841858,0,0,1.100000023841858,-40.000003814697266,-26.649980545043945)" clip-path="none"/>
<path cursor="pointer" name="Mehedinti" abbreviation="MH" d="M 298.3263 392.5828 L 290.2702 394.4348 L 286.1588 394.5829 L 286.4366 395.7682 L 283.1585 399.6203 L 280.2695 400.8797 L 279.9361 405.843 L 283.5475 408.2135 L 280.9917 408.1394 L 277.4359 409.9914 L 273.6579 420.5847 L 273.8801 426.5852 L 270.6577 427.2519 L 264.9351 432.6596 L 258.379 430.2891 L 244.7114 419.7699 L 244.4892 412.6583 L 238.0999 410.2136 L 236.0442 408.2135 L 233.4329 402.8798 L 233.3218 399.3981 L 231.8772 397.2498 L 232.5439 393.9903 L 237.3776 392.2124 L 238.0999 389.1751 L 241.8223 388.064 L 246.8227 390.879 L 249.6007 390.1382 L 251.2674 387.3232 L 247.2672 382.6562 L 242.1557 381.7672 L 237.8776 378.5818 L 233.6551 373.2481 L 229.9326 372.1369 L 226.8213 375.1001 L 222.7655 376.2113 L 213.0981 391.4716 L 210.598 392.5828 L 207.7644 391.6198 L 203.7086 383.3229 L 211.2647 383.6933 L 212.5425 382.6562 L 212.8203 374.063 L 215.765 368.8034 L 217.0428 364.6549 L 219.7097 364.6549 L 222.7099 367.6181 L 225.4879 367.8403 L 227.5436 370.2109 L 231.1549 368.9515 L 234.9885 358.4323 L 237.9332 353.9875 L 240.4889 345.8388 L 245.6559 339.7643 L 248.1561 341.0977 L 250.7118 344.9498 L 255.9344 345.6906 L 258.5457 346.95 L 262.9905 351.7651 L 262.4349 355.6913 L 263.6572 363.9882 L 269.102 370.9517 L 273.8801 375.989 L 276.547 377.7669 L 287.6589 381.545 L 293.2148 385.4712 L 296.7706 389.2492 L 298.3263 392.5828 Z" fill="#8cd5f7" fill-opacity="1" stroke="#000000" stroke-width="0.3636363557547579" paint-order="fill" stroke-opacity="1" stroke-dasharray="" stroke-linecap="butt" stroke-linejoin="miter" stroke-miterlimit="10" transform="matrix(1.100000023841858,0,0,1.100000023841858,-40.000003814697266,-26.649980545043945)" clip-path="none"/>
<path cursor="pointer" name="Olt" abbreviation="OT" d="M 372.7203 468.7362 L 362.164 464.4396 L 357.6082 464.736 L 352.6634 467.7732 L 338.8846 467.7732 L 342.7182 460.143 L 346.5518 455.3279 L 347.4408 452.8092 L 346.8296 448.2904 L 348.7187 447.1051 L 348.7187 443.8456 L 343.4405 441.0306 L 344.3295 436.3636 L 348.2742 435.4006 L 346.9963 432.8819 L 346.9408 425.1036 L 341.107 420.7329 L 338.7735 416.4363 L 333.5509 409.3988 L 331.3286 408.5098 L 328.5506 404.5836 L 325.1615 401.5464 L 328.8284 395.7682 L 332.9398 393.9162 L 336.44 397.1757 L 341.4404 392.805 L 345.774 393.1754 L 350.941 388.3603 L 352.4411 392.5087 L 353.4412 391.6938 L 350.8855 376.5076 L 354.2746 371.5443 L 355.608 366.1365 L 359.2749 361.2473 L 361.2751 362.877 L 361.0528 367.2477 L 363.2752 369.8405 L 369.3312 363.6178 L 369.5534 367.6922 L 372.7203 375.1001 L 374.7205 377.4706 L 378.8874 377.7669 L 377.1651 381.9154 L 379.1652 386.1379 L 380.5542 395.9904 L 379.9986 399.324 L 381.2209 407.9172 L 386.7769 410.51 L 385.7212 415.0288 L 386.2213 423.4738 L 385.1656 428.6594 L 385.4434 435.8451 L 381.0542 437.8452 L 378.2763 440.512 L 373.1648 442.0677 L 371.3313 446.9569 L 375.4427 457.1799 L 378.1096 462.0691 L 378.3318 464.2174 L 372.7203 468.7362 Z" fill="#8cd5f7" fill-opacity="1" stroke="#000000" stroke-width="0.3636363557547579" paint-order="fill" stroke-opacity="1" stroke-dasharray="" stroke-linecap="butt" stroke-linejoin="miter" stroke-miterlimit="10" transform="matrix(1.100000023841858,0,0,1.100000023841858,-40.000003814697266,-26.649980545043945)" clip-path="none"/>
<path cursor="pointer" name="Teleorman" abbreviation="TL" d="M 443.4475 473.7736 L 439.3916 473.8477 L 435.7247 476.4405 L 431.7244 478.0702 L 425.8351 478.1443 L 421.5015 479.7 L 418.668 479.2555 L 411.6675 474.5144 L 400.3889 472.9587 L 392.6662 469.8474 L 378.6652 470.5141 L 372.7203 468.7362 L 378.3318 464.2174 L 378.1096 462.0691 L 375.4427 457.1799 L 371.3313 446.9569 L 373.1648 442.0677 L 378.2763 440.512 L 381.0542 437.8452 L 385.4434 435.8451 L 385.1656 428.6594 L 386.2213 423.4738 L 385.7212 415.0288 L 386.7769 410.51 L 389.5548 409.8432 L 395.2219 410.6581 L 397.9443 408.3617 L 403.1669 407.9172 L 406.056 405.6948 L 409.0006 405.1763 L 414.7788 406.806 L 419.3347 405.843 L 422.3904 401.5464 L 422.6127 398.5832 L 430.2243 400.8056 L 431.7244 403.3243 L 428.7798 409.9173 L 432.3356 417.103 L 439.0583 418.2883 L 442.7252 421.6959 L 443.2808 424.1405 L 443.1697 433.03 L 440.6695 433.919 L 438.0026 440.8084 L 438.2804 448.8089 L 439.8361 458.4392 L 442.4474 464.2174 L 443.4475 473.7736 Z" fill="#8cd5f7" fill-opacity="1" stroke="#000000" stroke-width="0.3636363557547579" paint-order="fill" stroke-opacity="1" stroke-dasharray="" stroke-linecap="butt" stroke-linejoin="miter" stroke-miterlimit="10" transform="matrix(1.100000023841858,0,0,1.100000023841858,-40.000003814697266,-26.649980545043945)" clip-path="none"/>
<path cursor="pointer" name="Calarasi" abbreviation="CL" d="M 543.8433 437.1785 L 533.8426 435.1043 L 529.0645 432.067 L 527.3422 433.1782 L 519.6194 433.9931 L 513.3968 437.697 L 508.1186 438.4378 L 501.896 440.512 L 488.8395 442.4381 L 489.4507 438.9564 L 491.3397 436.2895 L 491.7842 431.1781 L 488.8951 425.7703 L 483.1169 422.1404 L 480.1167 418.5105 L 480.8389 416.0659 L 484.2281 411.1767 L 490.5618 407.3986 L 492.0064 405.1022 L 488.8395 402.5094 L 490.3396 399.9907 L 495.5066 397.1757 L 502.2293 399.7685 L 508.7298 396.5831 L 513.119 399.7685 L 516.7859 399.5462 L 520.675 401.176 L 527.2311 400.8797 L 532.0092 402.9539 L 539.343 402.5835 L 550.9549 402.8057 L 557.6221 401.5464 L 566.7338 403.2502 L 573.1231 405.3244 L 578.2346 409.621 L 584.235 412.0656 L 594.1246 415.251 L 592.2911 419.918 L 588.4575 423.4738 L 578.9569 425.9925 L 575.29 428.8075 L 567.1227 429.3261 L 561.1223 432.3633 L 556.4553 435.9191 L 546.4546 434.3635 L 543.8433 437.1785 Z" fill="#8cd5f7" fill-opacity="1" stroke="#000000" stroke-width="0.3636363557547579" paint-order="fill" stroke-opacity="1" stroke-dasharray="" stroke-linecap="butt" stroke-linejoin="miter" stroke-miterlimit="10" transform="matrix(1.100000023841858,0,0,1.100000023841858,-40.000003814697266,-26.649980545043945)" clip-path="none"/>
<path cursor="pointer" name="Dambovita" abbreviation="DB" d="M 430.2243 400.8056 L 422.6127 398.5832 L 422.3904 401.5464 L 419.3347 405.843 L 414.7788 406.806 L 416.4456 402.5835 L 415.8344 399.0277 L 417.279 394.3607 L 413.5009 392.7309 L 409.5007 386.5824 L 411.3897 383.3229 L 409.2229 380.9524 L 410.8341 375.2483 L 411.5008 367.6922 L 410.5007 357.9137 L 413.112 354.1357 L 412.1119 350.2836 L 409.2784 346.2833 L 409.1117 339.6902 L 410.8341 336.8011 L 414.001 339.0976 L 415.7233 337.0975 L 417.3901 330.0599 L 420.1125 322.5779 L 418.6124 318.948 L 422.5016 318.0591 L 426.4463 313.1699 L 428.5575 325.1707 L 430.4466 326.5782 L 432.3911 330.6526 L 432.2245 334.5047 L 435.1691 338.7272 L 438.5582 345.7647 L 442.0029 350.8762 L 442.7807 357.0988 L 445.8921 360.5806 L 448.3922 360.1361 L 450.3924 362.6548 L 450.5035 369.6182 L 451.7258 371.0257 L 456.8928 372.5814 L 461.282 378.1373 L 464.1156 379.8412 L 461.6709 382.3599 L 459.1708 387.5454 L 461.3376 388.3603 L 460.6709 390.8049 L 456.0039 395.62 L 435.8914 396.509 L 432.7801 397.6943 L 430.2243 400.8056 Z" fill="#8cd5f7" fill-opacity="1" stroke="#000000" stroke-width="0.3636363557547579" paint-order="fill" stroke-opacity="1" stroke-dasharray="" stroke-linecap="butt" stroke-linejoin="miter" stroke-miterlimit="10" transform="matrix(1.100000023841858,0,0,1.100000023841858,-40.000003814697266,-26.649980545043945)" clip-path="none"/>
<path cursor="pointer" name="Giurgiu" abbreviation="GR" d="M 480.1167 418.5105 L 483.1169 422.1404 L 488.8951 425.7703 L 491.7842 431.1781 L 491.3397 436.2895 L 489.4507 438.9564 L 488.8395 442.4381 L 481.8946 443.4011 L 476.672 445.6235 L 471.3383 446.9569 L 466.6157 450.8831 L 464.949 454.1426 L 456.9484 459.9208 L 452.5592 466.2916 L 448.3367 469.6252 L 446.6699 472.5884 L 443.4475 473.7736 L 442.4474 464.2174 L 439.8361 458.4392 L 438.2804 448.8089 L 438.0026 440.8084 L 440.6695 433.919 L 443.1697 433.03 L 443.2808 424.1405 L 442.7252 421.6959 L 439.0583 418.2883 L 432.3356 417.103 L 428.7798 409.9173 L 431.7244 403.3243 L 430.2243 400.8056 L 432.7801 397.6943 L 435.8914 396.509 L 456.0039 395.62 L 457.5596 399.2499 L 455.2261 406.7319 L 454.6149 410.8804 L 455.615 413.8435 L 461.1154 417.5475 L 463.2822 418.066 L 470.3382 423.7701 L 474.0607 423.9924 L 480.1167 418.5105 Z" fill="#8cd5f7" fill-opacity="1" stroke="#000000" stroke-width="0.3636363557547579" paint-order="fill" stroke-opacity="1" stroke-dasharray="" stroke-linecap="butt" stroke-linejoin="miter" stroke-miterlimit="10" transform="matrix(1.100000023841858,0,0,1.100000023841858,-40.000003814697266,-26.649980545043945)" clip-path="none"/>
<path cursor="pointer" name="Ialomita" abbreviation="IL" d="M 594.1246 415.251 L 584.235 412.0656 L 578.2346 409.621 L 573.1231 405.3244 L 566.7338 403.2502 L 557.6221 401.5464 L 550.9549 402.8057 L 539.343 402.5835 L 532.0092 402.9539 L 527.2311 400.8797 L 520.675 401.176 L 516.7859 399.5462 L 513.119 399.7685 L 508.7298 396.5831 L 502.2293 399.7685 L 495.5066 397.1757 L 490.3396 399.9907 L 486.006 396.0645 L 487.6172 392.4346 L 490.2285 390.6567 L 490.1729 388.138 L 485.5615 384.9526 L 484.617 379.5448 L 479.7833 377.9892 L 485.2837 374.7297 L 489.7285 375.5446 L 491.7286 373.6185 L 496.1178 373.6926 L 499.0624 371.9888 L 501.5626 368.433 L 505.174 371.0998 L 512.1745 371.248 L 517.5082 372.5073 L 520.7306 372.0628 L 527.2866 374.2852 L 529.6201 372.5073 L 534.0649 373.9148 L 535.3427 378.1373 L 540.4542 376.2854 L 538.5652 374.4334 L 540.2875 372.7296 L 545.6212 374.8779 L 550.566 373.8407 L 554.0107 375.1001 L 571.7897 375.5446 L 578.3457 373.2481 L 582.7349 373.174 L 586.4018 376.4335 L 584.235 379.3226 L 586.8463 383.9155 L 590.8466 385.2489 L 594.6246 389.6937 L 593.7912 399.7685 L 598.1249 401.3241 L 599.6805 405.6207 L 599.0138 408.2135 L 595.7914 411.1767 L 594.1246 415.251 Z" fill="#8cd5f7" fill-opacity="1" stroke="#000000" stroke-width="0.3636363557547579" paint-order="fill" stroke-opacity="1" stroke-dasharray="" stroke-linecap="butt" stroke-linejoin="miter" stroke-miterlimit="10" transform="matrix(1.100000023841858,0,0,1.100000023841858,-40.000003814697266,-26.649980545043945)" clip-path="none"/>
<path cursor="pointer" name="Constanta" abbreviation="CT" d="M 643.4058 384.2859 L 643.9058 387.5454 L 648.9062 385.9157 L 651.573 382.5821 L 650.6285 380.7301 L 655.1844 382.0635 L 656.5734 384.4341 L 652.4064 383.9155 L 647.9617 388.4344 L 642.8502 391.6198 L 644.0725 388.5084 L 641.4612 390.4345 L 643.7392 392.9532 L 640.1833 394.7311 L 642.9058 396.1386 L 641.1834 402.2872 L 642.0724 404.2132 L 643.2947 400.213 L 648.1839 394.5829 L 651.6841 392.9532 L 647.5728 401.3982 L 644.5725 403.9169 L 638.8499 411.9915 L 638.0165 415.251 L 634.6274 416.9549 L 634.1274 422.9553 L 636.4609 428.8816 L 636.5164 431.104 L 634.2941 433.03 L 637.2387 446.9569 L 635.183 454.8834 L 633.4051 458.9578 L 631.8494 465.8471 L 631.5716 471.2549 L 622.071 472.0698 L 607.9589 469.8474 L 594.2357 463.6988 L 591.9578 461.9209 L 588.8464 451.3276 L 587.2908 448.7348 L 583.6239 449.1793 L 579.068 451.8462 L 574.7899 452.9574 L 570.4007 446.068 L 565.067 446.8088 L 552.5106 446.9569 L 549.7326 443.4752 L 546.0101 441.6973 L 543.8433 437.1785 L 546.4546 434.3635 L 556.4553 435.9191 L 561.1223 432.3633 L 567.1227 429.3261 L 575.29 428.8075 L 578.9569 425.9925 L 588.4575 423.4738 L 592.2911 419.918 L 594.1246 415.251 L 595.7914 411.1767 L 599.0138 408.2135 L 599.6805 405.6207 L 598.1249 401.3241 L 593.7912 399.7685 L 594.6246 389.6937 L 590.8466 385.2489 L 586.8463 383.9155 L 584.235 379.3226 L 586.4018 376.4335 L 591.9022 377.6929 L 595.7358 376.2113 L 601.6251 375.5446 L 604.9031 376.878 L 610.6257 382.1376 L 613.4037 381.3968 L 614.7371 377.3965 L 618.4596 377.3225 L 621.8487 381.2487 L 626.5713 383.1747 L 631.6828 383.1006 L 635.9053 381.6931 L 643.4058 384.2859 Z" fill="#8cd5f7" fill-opacity="1" stroke="#000000" stroke-width="0.3636363557547579" paint-order="fill" stroke-opacity="1" stroke-dasharray="" stroke-linecap="butt" stroke-linejoin="miter" stroke-miterlimit="10" transform="matrix(1.100000023841858,0,0,1.100000023841858,-40.000003814697266,-26.649980545043945)" clip-path="none"/>
<path cursor="pointer" name="Arad" abbreviation="AR" d="M 128.3145 231.979 L 131.0924 229.2381 L 131.0369 225.7564 L 133.6482 223.9044 L 137.5929 223.1636 L 145.149 225.9045 L 147.538 225.7564 L 149.5937 227.7565 L 154.0385 223.9785 L 156.3164 223.9044 L 158.4832 220.4227 L 159.0388 216.2742 L 160.9834 213.1629 L 166.4282 211.8295 L 164.5948 206.1254 L 167.9839 199.9027 L 170.0396 193.5319 L 175.0955 193.0134 L 177.0401 190.1984 L 181.2626 191.6799 L 202.264 191.9022 L 211.598 196.7173 L 217.154 197.31 L 221.9321 200.199 L 225.4879 208.57 L 232.0439 213.4592 L 236.6553 215.6075 L 238.211 219.0892 L 250.5452 221.682 L 256.1567 222.0524 L 259.0458 225.4601 L 254.7677 228.3492 L 251.2674 234.4977 L 248.6561 236.2756 L 242.4891 235.1644 L 240.4334 235.7571 L 237.9332 238.8684 L 237.322 244.5725 L 235.7108 248.4246 L 236.2108 252.7953 L 234.8774 255.8325 L 231.7105 259.4624 L 229.4882 261.9811 L 223.3766 264.2776 L 217.2651 262.7219 L 212.8759 258.0549 L 209.2645 257.3141 L 206.4866 254.9436 L 203.7086 255.2399 L 201.9862 259.018 L 197.7637 258.2772 L 197.4304 261.3885 L 192.3745 257.0178 L 187.8741 261.1662 L 185.7073 258.4994 L 186.2074 256.6474 L 182.9294 252.4249 L 179.8736 251.9804 L 177.3734 247.9801 L 173.4843 247.9061 L 172.4286 250.647 L 169.0951 253.2398 L 166.8171 251.6841 L 162.4835 253.1657 L 158.9833 250.5729 L 158.4277 248.2024 L 155.7608 248.8691 L 154.7607 251.8323 L 151.8716 251.3137 L 151.2605 248.4246 L 141.0376 245.1651 L 137.704 239.5351 L 128.3145 231.979 Z" fill="#8cd5f7" fill-opacity="1" stroke="#000000" stroke-width="0.3636363557547579" paint-order="fill" stroke-opacity="1" stroke-dasharray="" stroke-linecap="butt" stroke-linejoin="miter" stroke-miterlimit="10" transform="matrix(1.100000023841858,0,0,1.100000023841858,-40.000003814697266,-26.649980545043945)" clip-path="none"/>
<path cursor="pointer" name="Bihor" abbreviation="BH" d="M 256.1567 222.0524 L 250.5452 221.682 L 238.211 219.0892 L 236.6553 215.6075 L 232.0439 213.4592 L 225.4879 208.57 L 221.9321 200.199 L 217.154 197.31 L 211.598 196.7173 L 202.264 191.9022 L 181.2626 191.6799 L 177.0401 190.1984 L 180.9848 187.976 L 182.5404 184.5683 L 180.5403 182.5682 L 182.9294 176.9382 L 188.8742 172.1971 L 189.3187 167.6783 L 192.9301 164.8633 L 194.4302 160.4185 L 192.43 157.3813 L 196.5414 153.4551 L 201.5973 149.6029 L 202.3196 147.1583 L 205.4865 143.2321 L 205.4865 140.4912 L 208.3756 133.0092 L 213.3759 127.8236 L 216.2095 127.1569 L 217.5984 124.6382 L 217.4318 115.4524 L 220.7098 111.3781 L 229.0437 106.7111 L 232.2106 112.8596 L 234.6552 114.9339 L 239.8778 125.379 L 244.1003 125.7494 L 246.8782 124.7864 L 251.7675 128.4163 L 253.1009 133.5277 L 249.934 141.6765 L 247.1005 145.01 L 247.7116 148.2695 L 252.3786 157.8998 L 256.7678 161.1593 L 259.9903 165.6781 L 257.7679 171.0118 L 262.4349 174.5676 L 259.8792 180.1236 L 255.8233 182.7164 L 255.8233 184.3461 L 258.8791 187.9019 L 261.2126 195.6802 L 263.7683 199.236 L 263.1572 205.0142 L 259.2124 203.9771 L 256.7123 206.9403 L 255.49 211.385 L 255.2677 217.0891 L 256.1567 222.0524 Z" fill="#8cd5f7" fill-opacity="1" stroke="#000000" stroke-width="0.3636363557547579" paint-order="fill" stroke-opacity="1" stroke-dasharray="" stroke-linecap="butt" stroke-linejoin="miter" stroke-miterlimit="10" transform="matrix(1.100000023841858,0,0,1.100000023841858,-40.000003814697266,-26.649980545043945)" clip-path="none"/>

<text cursor="pointer" transform="matrix(0.2802 -0.9599 0.9599 0.2802 483.2396 437.8273)" style="font-family:'Tahoma'; font-size:7px;" class="maplabels1" name="Bucuresti" abbreviation="B">Bucuresti</text>
<text cursor="pointer" transform="matrix(1 0 0 1 147.6546 351.8981)" style="font-family:'Tahoma'; font-size:12px;" class="maplabels1" name="Caras-Severin" abbreviation="CS">Caras-Severin</text>
<text cursor="pointer" transform="matrix(1 0 0 1 132.5282 281.2491)" style="font-family:'Tahoma'; font-size:12px;" class="maplabels1" name="Timis" abbreviation="TM">Timis</text>
<text cursor="pointer" transform="matrix(1 0 0 1 499.8837 75.0867)" style="font-family:'Tahoma'; font-size:12px;" class="maplabels1" name="Botosani" abbreviation="BT">Botosani</text>
<text cursor="pointer" transform="matrix(1 0 0 1 326.882 142.3543)" style="font-family:'Tahoma'; font-size:12px;" class="maplabels1" name="Bistrita-Nasaud" abbreviation="BN">Bistrita-Nasaud</text>
<text cursor="pointer" transform="matrix(1 0 0 1 292.651 189.151)" style="font-family:'Tahoma'; font-size:12px;" class="maplabels1" name="Cluj" abbreviation="CJ">Cluj</text>
<text cursor="pointer" transform="matrix(1 0 0 1 288.1587 245.8021)" style="font-family:'Tahoma'; font-size:12px;" class="maplabels1" name="Alba" abbreviation="AB">Alba</text>
<text cursor="pointer" transform="matrix(1 0 0 1 225.8866 276.7673)" style="font-family:'Tahoma'; font-size:11px;" class="maplabels1" name="Hunedoara" abbreviation="HD">Hunedoara</text>
<text cursor="pointer" transform="matrix(1 0 0 1 312.2384 94.5396)" style="font-family:'Tahoma'; font-size:12px;" class="maplabels1" name="Maramures" abbreviation="MM">Maramures</text>
<text cursor="pointer" transform="matrix(1 0 0 1 358.7454 202.2474)" style="font-family:'Tahoma'; font-size:12px;" class="maplabels1" name="Mures" abbreviation="MS">Mures</text>
<text cursor="pointer" transform="matrix(1 0 0 1 263.8853 140.2764)" style="font-family:'Tahoma'; font-size:12px;" class="maplabels1" name="Salaj" abbreviation="SJ">Salaj</text>
<text cursor="pointer" transform="matrix(1 0 0 1 225.8866 90.7324)" style="font-family:'Tahoma'; font-size:12px;" class="maplabels1" name="Satu Mare" abbreviation="SM">Satu Mare</text>
<text cursor="pointer" transform="matrix(1 0 0 1 373.4861 363.266)" style="font-family:'Tahoma'; font-size:12px;" class="maplabels1" name="Arges" abbreviation="AG">Arges</text>
<text cursor="pointer" transform="matrix(1 0 0 1 336.3511 273.9968)" style="font-family:'Tahoma'; font-size:12px;" class="maplabels1" name="Sibiu" abbreviation="SB">Sibiu</text>
<text cursor="pointer" transform="matrix(1 0 0 1 319.6451 356.7474)" style="font-family:'Tahoma'; font-size:12px;" class="maplabels1" name="Valcea" abbreviation="VL">Vlcea</text>
<text cursor="pointer" transform="matrix(1 0 0 1 396.222 288.3386)" style="font-family:'Tahoma'; font-size:12px;" class="maplabels1" name="Brasov" abbreviation="BV">Brasov</text>
<text cursor="pointer" transform="matrix(1 0 0 1 444.0019 270.0854)" style="font-family:'Tahoma'; font-size:12px;" class="maplabels1" name="Covasna" abbreviation="CV">Covasna</text>
<text cursor="pointer" transform="matrix(1 0 0 1 417.1565 217.6893)" style="font-family:'Tahoma'; font-size:12px;" class="maplabels1" name="Harghita" abbreviation="HR">Harghita</text>
<text cursor="pointer" transform="matrix(1 0 0 1 550.6938 141.5802)" style="font-family:'Tahoma'; font-size:12px;" class="maplabels1" name="Iasi" abbreviation="IS">Iasi</text>
<text cursor="pointer" transform="matrix(1 0 0 1 483.2392 173.5279)" style="font-family:'Tahoma'; font-size:12px;" class="maplabels1" name="Neamt" abbreviation="NT">Neamt</text>
<text cursor="pointer" transform="matrix(1 0 0 1 447.2645 351.8985)" style="font-family:'Tahoma'; font-size:12px;" class="maplabels1" name="Prahova" abbreviation="PH">Prahova</text>
<text cursor="pointer" transform="matrix(1 0 0 1 435.4322 108.8631)" style="font-family:'Tahoma'; font-size:12px;" class="maplabels1" name="Suceava" abbreviation="SV">Suceava</text>
<text cursor="pointer" transform="matrix(1 0 0 1 511.7185 232.9272)" style="font-family:'Tahoma'; font-size:12px;" class="maplabels1" name="Bacau" abbreviation="BC">Bacau</text>
<text cursor="pointer" transform="matrix(1 0 0 1 568.1119 351.7355)" style="font-family:'Tahoma'; font-size:12px;" class="maplabels1" name="Braila" abbreviation="BR">Braila</text>
<text cursor="pointer" transform="matrix(1 0 0 1 503.9036 336.253)" style="font-family:'Tahoma'; font-size:12px;" class="maplabels1" name="Buzau" abbreviation="BZ">Buzau</text>
<text cursor="pointer" transform="matrix(1 0 0 1 575.6256 287.2385)" style="font-family:'Tahoma'; font-size:12px;" class="maplabels1" name="Galati" abbreviation="GL">Galati</text>
<text cursor="pointer" transform="matrix(1 0 0 1 580.9014 217.6892)" style="font-family:'Tahoma'; font-size:12px;" class="maplabels1" name="Vaslui" abbreviation="VS">Vaslui</text>
<text cursor="pointer" transform="matrix(1 0 0 1 515.6117 285.6902)" style="font-family:'Tahoma'; font-size:12px;" class="maplabels1" name="Vrancea" abbreviation="VN">Vrancea</text>
<text cursor="pointer" transform="matrix(1 0 0 1 472.6664 401.7775)" style="font-family:'Tahoma'; font-size:11px;" class="maplabels1" name="Ilfov" abbreviation="IF">Ilfov</text>
<text cursor="pointer" transform="matrix(1 0 0 1 651.9417 356.747)" style="font-family:'Tahoma'; font-size:12px;" class="maplabels1" name="Tulcea" abbreviation="TL">Tulcea</text>
<text cursor="pointer" transform="matrix(1 0 0 1 280.052 437.8267)" style="font-family:'Tahoma'; font-size:12px;" class="maplabels1" name="Dolj" abbreviation="DJ">Dolj</text>
<text cursor="pointer" transform="matrix(1 0 0 1 258.5467 364.5698)" style="font-family:'Tahoma'; font-size:12px;" class="maplabels1" name="Gorj" abbreviation="GJ">Gorj</text>
<text cursor="pointer" transform="matrix(1 0 0 1 219.2101 419.5732)" style="font-family:'Tahoma'; font-size:10px;" class="maplabels1" name="Mehedinti" abbreviation="MH">Mehedinti</text>
<text cursor="pointer" transform="matrix(1 0 0 1 343.3078 429.841)" style="font-family:'Tahoma'; font-size:12px;" class="maplabels1" name="Olt" abbreviation="OT">Olt</text>
<text cursor="pointer" transform="matrix(1 0 0 1 381.4945 471.5211)" style="font-family:'Tahoma'; font-size:12px;" class="maplabels1" name="Teleorman" abbreviation="TL">Teleorman</text>
<text cursor="pointer" transform="matrix(1 0 0 1 528.4794 434.8117)" style="font-family:'Tahoma'; font-size:12px;" class="maplabels1" name="Calarasi" abbreviation="CL">Calarasi</text>
<text cursor="pointer" transform="matrix(1 0 0 1 410.0229 395.4122)" style="font-family:'Tahoma'; font-size:10px;" class="maplabels1" name="Dambovita" abbreviation="DB">Dambovita</text>
<text cursor="pointer" transform="matrix(1 0 0 1 445.8167 451.5165)" style="font-family:'Tahoma'; font-size:12px;" class="maplabels1" name="Giurgiu" abbreviation="GR">Giurgiu</text>
<text cursor="pointer" transform="matrix(1 0 0 1 530.3235 404.3763)" style="font-family:'Tahoma'; font-size:12px;" class="maplabels1" name="Ialomita" abbreviation="IL">Ialomita</text>
<text cursor="pointer" transform="matrix(1 0 0 1 597.2601 460.0318)" style="font-family:'Tahoma'; font-size:12px;" class="maplabels1" name="Constanta" abbreviation="CT">Constanta</text>
<text cursor="pointer" transform="matrix(1 0 0 1 159.8037 223.3118)" style="font-family:'Tahoma'; font-size:12px;" class="maplabels1" name="Arad" abbreviation="AR">Arad</text>
<text cursor="pointer" transform="matrix(1 0 0 1 191.4895 170.5081)" style="font-family:'Tahoma'; font-size:12px;" class="maplabels1" name="Bihor" abbreviation="BH">Bihor</text>
</svg>